<svg width="179" height="179" viewBox="0 0 179 179" fill="none" xmlns="http://www.w3.org/2000/svg">
<path d="M95.5097 88.2209C93.6132 89.0444 91.5679 89.4693 89.5004 89.4693C87.4328 89.4693 85.3875 89.0444 83.4911 88.2209L10.6125 54.4666C9.42908 53.8698 8.43455 52.9561 7.7397 51.8274C7.04485 50.6987 6.67694 49.3992 6.67694 48.0737C6.67694 46.7483 7.04485 45.4488 7.7397 44.3201C8.43455 43.1915 9.42908 42.2779 10.6125 41.6809L83.4911 7.67091C85.3875 6.84742 87.4328 6.42249 89.5004 6.42249C91.5679 6.42249 93.6132 6.84742 95.5097 7.67091L168.388 41.4252C169.572 42.0221 170.567 42.9358 171.261 44.0644C171.956 45.1931 172.323 46.4925 172.323 47.818C172.323 49.1435 171.956 50.4429 171.261 51.5717C170.567 52.7004 169.572 53.6141 168.388 54.2109L95.5097 88.2209Z" stroke="black" stroke-linecap="round" stroke-linejoin="round"/>
<path d="M172.607 93.9747L94.6143 129.903C92.9486 130.662 91.139 131.056 89.3082 131.056C87.4775 131.056 85.6679 130.662 84.0022 129.903L6.39288 93.9747" stroke="black" stroke-linecap="round" stroke-linejoin="round"/>
<path d="M172.607 135.529L94.6143 171.456C92.9486 172.216 91.139 172.61 89.3082 172.61C87.4775 172.61 85.6679 172.216 84.0022 171.456L6.39288 135.529" stroke="black" stroke-linecap="round" stroke-linejoin="round"/>
<path d="M30.9604 61.5556L116.511 18.0556L129.289 23.9535L129.29 23.954L142.357 30.0204L58.6007 72.6082C56.0847 73.8875 54.5 76.4711 54.5 79.2936V116.5V157.218L28.5 145.18V65.5669C28.5 63.8733 29.4508 62.3232 30.9604 61.5556Z" fill="#2AA2E6" stroke="black"/>
</svg>
